<svg xmlns="http://www.w3.org/2000/svg" width="400" height="400" viewBox="0 0 400 400">
    <g transform="translate(-355 -20)">
        <rect width="400" height="85" rx="35" transform="translate(355 20)" fill="#2d3436" opacity="0.9" d="M28 0H115A28 28 0 0 1 140 28V28A28 28 0 0 1 112 56H28A28 28 0 0 1 0 28V28A28 28 0 0 1 28 0z"/>
        <rect rx="35" width="130" height="400" transform="translate(355 20)" fill="#2d3436" opacity="0.9" d="M28 0H28A28 28 0 0 1 56 28V28A28 28 0 0 1 28 56H28A28 28 0 0 1 0 28V28A28 28 0 0 1 28 0z"/>
        <rect width="250" height="85" rx="35" transform="translate(355 180)" fill="#2d3436" opacity="0.9" d="M28 0H115A28 28 0 0 1 140 28V28A28 28 0 0 1 112 56H28A28 28 0 0 1 0 28V28A28 28 0 0 1 28 0z"/>
        <rect opacity="0.9" width="250" height="85" rx="35" transform="translate(505 180)" fill="#00b894" d="M28 0H28A28 28 0 0 1 56 28V28A28 28 0 0 1 28 56H28A28 28 0 0 1 0 28V28A28 28 0 0 1 28 0z"/>
        <rect width="130" height="400" rx="35" transform="translate(625 20)" fill="#00b894" opacity="0.9" d="M28 0H28A28 28 0 0 1 56 28V28A28 28 0 0 1 28 56H28A28 28 0 0 1 0 28V28A28 28 0 0 1 28 0z"/>
        <rect width="400" height="85" rx="35" transform="translate(355 335)" fill="#00b894" opacity="0.9" d="M28 0H28A28 28 0 0 1 56 28V28A28 28 0 0 1 28 56H28A28 28 0 0 1 0 28V28A28 28 0 0 1 28 0z"/>
    </g>
</svg>
